<mxfile host="app.diagrams.net" modified="2024-07-09T10:25:17.605Z" agent="Mozilla/5.0 (Windows NT 10.0; Win64; x64) AppleWebKit/537.36 (KHTML, like Gecko) Chrome/126.0.0.0 Safari/537.36" etag="RM_iiu7FzZEVqOzTxUwT" version="24.6.4" type="device">
  <diagram name="Page-1" id="TOHYviatj2I0MnoTYPZb">
    <mxGraphModel dx="2800" dy="1085" grid="1" gridSize="10" guides="1" tooltips="1" connect="1" arrows="1" fold="1" page="1" pageScale="1" pageWidth="850" pageHeight="1100" math="0" shadow="0">
      <root>
        <mxCell id="0" />
        <mxCell id="1" parent="0" />
        <mxCell id="POUIxKWlCIAywBIWzHVX-10" style="edgeStyle=orthogonalEdgeStyle;rounded=0;orthogonalLoop=1;jettySize=auto;html=1;exitX=0.5;exitY=1;exitDx=0;exitDy=0;" edge="1" parent="1" source="POUIxKWlCIAywBIWzHVX-1" target="POUIxKWlCIAywBIWzHVX-2">
          <mxGeometry relative="1" as="geometry" />
        </mxCell>
        <mxCell id="POUIxKWlCIAywBIWzHVX-1" value="Start" style="ellipse;whiteSpace=wrap;html=1;" vertex="1" parent="1">
          <mxGeometry x="365" y="20" width="120" height="80" as="geometry" />
        </mxCell>
        <mxCell id="POUIxKWlCIAywBIWzHVX-6" style="edgeStyle=orthogonalEdgeStyle;rounded=0;orthogonalLoop=1;jettySize=auto;html=1;exitX=0;exitY=0.5;exitDx=0;exitDy=0;" edge="1" parent="1" source="POUIxKWlCIAywBIWzHVX-2" target="POUIxKWlCIAywBIWzHVX-5">
          <mxGeometry relative="1" as="geometry" />
        </mxCell>
        <mxCell id="POUIxKWlCIAywBIWzHVX-7" value="Yes" style="edgeLabel;html=1;align=center;verticalAlign=middle;resizable=0;points=[];" vertex="1" connectable="0" parent="POUIxKWlCIAywBIWzHVX-6">
          <mxGeometry x="-0.7137" y="3" relative="1" as="geometry">
            <mxPoint as="offset" />
          </mxGeometry>
        </mxCell>
        <mxCell id="POUIxKWlCIAywBIWzHVX-11" style="edgeStyle=orthogonalEdgeStyle;rounded=0;orthogonalLoop=1;jettySize=auto;html=1;exitX=1;exitY=0.5;exitDx=0;exitDy=0;" edge="1" parent="1" source="POUIxKWlCIAywBIWzHVX-2" target="POUIxKWlCIAywBIWzHVX-8">
          <mxGeometry relative="1" as="geometry" />
        </mxCell>
        <mxCell id="POUIxKWlCIAywBIWzHVX-12" value="No" style="edgeLabel;html=1;align=center;verticalAlign=middle;resizable=0;points=[];" vertex="1" connectable="0" parent="POUIxKWlCIAywBIWzHVX-11">
          <mxGeometry x="-0.737" y="-1" relative="1" as="geometry">
            <mxPoint as="offset" />
          </mxGeometry>
        </mxCell>
        <mxCell id="POUIxKWlCIAywBIWzHVX-2" value="Is 5 Mins completed ?" style="rhombus;whiteSpace=wrap;html=1;" vertex="1" parent="1">
          <mxGeometry x="373" y="160" width="105" height="100" as="geometry" />
        </mxCell>
        <mxCell id="POUIxKWlCIAywBIWzHVX-3" value="End" style="ellipse;whiteSpace=wrap;html=1;" vertex="1" parent="1">
          <mxGeometry x="380" y="740" width="120" height="80" as="geometry" />
        </mxCell>
        <mxCell id="POUIxKWlCIAywBIWzHVX-14" style="edgeStyle=orthogonalEdgeStyle;rounded=0;orthogonalLoop=1;jettySize=auto;html=1;exitX=0.5;exitY=1;exitDx=0;exitDy=0;entryX=0.5;entryY=0;entryDx=0;entryDy=0;" edge="1" parent="1" source="POUIxKWlCIAywBIWzHVX-5" target="POUIxKWlCIAywBIWzHVX-13">
          <mxGeometry relative="1" as="geometry" />
        </mxCell>
        <mxCell id="POUIxKWlCIAywBIWzHVX-5" value="Show plan page" style="rounded=1;whiteSpace=wrap;html=1;" vertex="1" parent="1">
          <mxGeometry x="251.5" y="270" width="120" height="60" as="geometry" />
        </mxCell>
        <mxCell id="POUIxKWlCIAywBIWzHVX-9" style="edgeStyle=orthogonalEdgeStyle;rounded=0;orthogonalLoop=1;jettySize=auto;html=1;exitX=1;exitY=0.5;exitDx=0;exitDy=0;entryX=0.5;entryY=0;entryDx=0;entryDy=0;" edge="1" parent="1" source="POUIxKWlCIAywBIWzHVX-8" target="POUIxKWlCIAywBIWzHVX-2">
          <mxGeometry relative="1" as="geometry" />
        </mxCell>
        <mxCell id="POUIxKWlCIAywBIWzHVX-8" value="Show IPL for 5 mins" style="rounded=1;whiteSpace=wrap;html=1;" vertex="1" parent="1">
          <mxGeometry x="510" y="270" width="120" height="60" as="geometry" />
        </mxCell>
        <mxCell id="POUIxKWlCIAywBIWzHVX-16" style="edgeStyle=orthogonalEdgeStyle;rounded=0;orthogonalLoop=1;jettySize=auto;html=1;exitX=0;exitY=0.5;exitDx=0;exitDy=0;entryX=0;entryY=0.5;entryDx=0;entryDy=0;" edge="1" parent="1" source="POUIxKWlCIAywBIWzHVX-13" target="POUIxKWlCIAywBIWzHVX-3">
          <mxGeometry relative="1" as="geometry">
            <Array as="points">
              <mxPoint x="210" y="435" />
              <mxPoint x="210" y="780" />
            </Array>
          </mxGeometry>
        </mxCell>
        <mxCell id="POUIxKWlCIAywBIWzHVX-19" value="No" style="edgeLabel;html=1;align=center;verticalAlign=middle;resizable=0;points=[];" vertex="1" connectable="0" parent="POUIxKWlCIAywBIWzHVX-16">
          <mxGeometry x="-0.9281" y="-1" relative="1" as="geometry">
            <mxPoint as="offset" />
          </mxGeometry>
        </mxCell>
        <mxCell id="POUIxKWlCIAywBIWzHVX-18" style="edgeStyle=orthogonalEdgeStyle;rounded=0;orthogonalLoop=1;jettySize=auto;html=1;exitX=1;exitY=0.5;exitDx=0;exitDy=0;" edge="1" parent="1" source="POUIxKWlCIAywBIWzHVX-13" target="POUIxKWlCIAywBIWzHVX-17">
          <mxGeometry relative="1" as="geometry" />
        </mxCell>
        <mxCell id="POUIxKWlCIAywBIWzHVX-20" value="Yes" style="edgeLabel;html=1;align=center;verticalAlign=middle;resizable=0;points=[];" vertex="1" connectable="0" parent="POUIxKWlCIAywBIWzHVX-18">
          <mxGeometry x="-0.8494" y="1" relative="1" as="geometry">
            <mxPoint as="offset" />
          </mxGeometry>
        </mxCell>
        <mxCell id="POUIxKWlCIAywBIWzHVX-13" value="Is subscription done" style="rhombus;whiteSpace=wrap;html=1;" vertex="1" parent="1">
          <mxGeometry x="258" y="380" width="107" height="110" as="geometry" />
        </mxCell>
        <mxCell id="POUIxKWlCIAywBIWzHVX-21" style="edgeStyle=orthogonalEdgeStyle;rounded=0;orthogonalLoop=1;jettySize=auto;html=1;" edge="1" parent="1" source="POUIxKWlCIAywBIWzHVX-17" target="POUIxKWlCIAywBIWzHVX-3">
          <mxGeometry relative="1" as="geometry" />
        </mxCell>
        <mxCell id="POUIxKWlCIAywBIWzHVX-17" value="Show IPL for unlimited time&amp;nbsp;" style="rounded=1;whiteSpace=wrap;html=1;" vertex="1" parent="1">
          <mxGeometry x="478" y="520" width="120" height="60" as="geometry" />
        </mxCell>
      </root>
    </mxGraphModel>
  </diagram>
</mxfile>
